<?xml version="1.0" encoding="iso-8859-1"?>
<!-- Generator: Adobe Illustrator 19.1.0, SVG Export Plug-In . SVG Version: 6.00 Build 0)  -->
<svg version="1.1" id="Capa_1" xmlns="http://www.w3.org/2000/svg" xmlns:xlink="http://www.w3.org/1999/xlink" x="0px" y="0px"
	 viewBox="0 0 567.41 567.41" style="enable-background:new 0 0 567.41 567.41;" xml:space="preserve">
<g>
	<path d="M316.967,341.622h-45.388c-57.483,0-104.253,45.988-104.253,102.806c0,7.435,6.034,13.351,13.468,13.351
		c7.435,0,13.468-6.33,13.468-13.764c0-42.667,33.958-76.392,77.317-76.392h45.388c42.632,0,77.317,34.644,77.317,76.953
		c0,7.434,6.034,13.587,13.468,13.587s13.468-5.739,13.468-13.173C421.221,387.829,374.45,341.622,316.967,341.622z" fill="#1AA923"/>
	<path d="M283.7,0c-41.203,0-80.856,8.643-117.968,25.651c-6.408-7.475-11.396-12.569-12.908-14.086
		c-2.577-2.568-6.258-4.041-9.688-3.96c-3.627,0.036-7.084,1.535-9.589,4.157c-1.507,1.578-30.096,31.755-44.63,66.001
		c-0.654,0.438-1.285,0.928-1.872,1.493C30.955,133.246,0.067,205.849,0.067,283.705c0,156.43,127.239,283.705,283.633,283.705
		c156.403,0,283.642-127.275,283.642-283.705C567.342,127.266,440.103,0,283.7,0z M143.558,41.258
		c14.573,16.826,35.296,44.84,37.792,66.147c1.598,13.585-0.278,23.489-5.567,29.442c-5.755,6.474-16.692,9.751-32.503,9.751
		c-15.147,0-25.482-3.044-30.717-9.051c-5.019-5.782-6.573-15.821-4.624-29.846C111.315,83.638,131.365,56.1,143.558,41.258z
		 M283.7,540.464c-141.543,0-256.696-115.181-256.696-256.759c0-57.812,18.832-112.423,53.631-157.16
		c1.215,11.582,5.09,21.185,11.609,28.681c10.721,12.328,27.412,18.317,51.036,18.317c23.83,0,41.536-6.321,52.625-18.793
		c10.631-11.942,14.734-28.93,12.211-50.488c-2.27-19.319-13.518-39.848-25.324-56.706c31.881-13.671,65.765-20.61,100.908-20.61
		c141.543,0,256.706,115.181,256.706,256.759S425.243,540.464,283.7,540.464z" fill="#1AA923"/>
	<path d="M398.558,281.442c7.434,0,13.468-6.025,13.468-13.468c0-7.443-6.034-13.468-13.468-13.468
		c-17.661,0-32.584-15.578-32.584-34.012c0-7.434-6.034-13.468-13.468-13.468c-7.434,0-13.468,6.034-13.468,13.468
		C339.037,253.536,366.297,281.442,398.558,281.442z" fill= "#1AA923"/>
	<path d="M226.792,221.203c0-7.443-6.034-13.468-13.468-13.468c-7.434,0-13.468,6.025-13.468,13.468
		c0,17.67-15.569,32.593-33.994,32.593c-7.434,0-13.468,6.034-13.468,13.477s6.034,13.468,13.468,13.468
		C198.886,280.742,226.792,253.473,226.792,221.203z" fill="#1AA923"/>
</g>
<g>
</g>
<g>
</g>
<g>
</g>
<g>
</g>
<g>
</g>
<g>
</g>
<g>
</g>
<g>
</g>
<g>
</g>
<g>
</g>
<g>
</g>
<g>
</g>
<g>
</g>
<g>
</g>
<g>
</g>
</svg>
